<?xml version="1.0" standalone="no"?>
<!DOCTYPE svg PUBLIC "-//W3C//DTD SVG 20010904//EN"
 "http://www.w3.org/TR/2001/REC-SVG-20010904/DTD/svg10.dtd">
<svg version="1.0" xmlns="http://www.w3.org/2000/svg"
 width="200.000000pt" height="200.000000pt" viewBox="0 0 200.000000 200.000000"
 preserveAspectRatio="xMidYMid meet">
<metadata>
Created by potrace 1.14, written by Peter Selinger 2001-2017
</metadata>
<g transform="translate(0.000000,200.000000) scale(0.100000,-0.100000)"
fill="#000000" stroke="none">
<path d="M665 1416 c-4 -19 -4 -175 -1 -347 3 -173 5 -356 6 -406 l0 -93 30 0
30 0 0 79 0 78 162 134 c89 74 167 137 173 141 12 7 74 -96 215 -355 30 -56
49 -79 67 -83 13 -4 28 -3 32 2 5 5 -50 117 -122 249 l-129 239 58 50 c33 28
83 73 112 102 47 46 52 55 52 95 0 53 -27 102 -72 129 -31 19 -51 20 -320 20
l-287 0 -6 -34z m582 -45 c48 -30 52 -73 11 -121 -10 -12 -431 -365 -511 -429
-16 -13 -17 3 -17 278 l0 291 243 0 c221 0 245 -2 274 -19z"/>
</g>
</svg>
