<svg width="453" height="279" viewBox="0 0 453 279" fill="none" xmlns="http://www.w3.org/2000/svg">
<g filter="url(#filter0_dii_1481_3303)">
<path d="M155 134.386L231.885 90L261.801 107.27C284.74 120.513 289.048 131.269 274.725 139.537C264.765 145.287 252.483 144.829 237.879 138.161L233.517 140.679L244.804 147.195C251.013 150.78 251.028 154.356 244.848 157.924L220.311 172.089L202.778 161.968L229.824 146.354L199.579 128.894L172.533 144.507L155 134.386ZM214.847 120.08L227.23 127.228C229.933 128.789 231.869 129.906 233.038 130.581C234.352 131.256 236.032 132.016 238.076 132.86C240.192 133.662 241.943 134.085 243.328 134.129C244.713 134.173 246.316 134.007 248.136 133.631C249.957 133.255 251.812 132.521 253.702 131.43C255.593 130.339 256.863 129.268 257.515 128.217C258.239 127.124 258.563 126.178 258.487 125.378C258.411 124.579 257.641 123.589 256.179 122.409C254.789 121.187 253.473 120.217 252.231 119.5C251.135 118.784 249.236 117.645 246.533 116.085L234.15 108.936L214.847 120.08Z" fill="#E7E3FF"/>
<path d="M155 134.386L231.885 90L261.801 107.27C284.74 120.513 289.048 131.269 274.725 139.537C264.765 145.287 252.483 144.829 237.879 138.161L233.517 140.679L244.804 147.195C251.013 150.78 251.028 154.356 244.848 157.924L220.311 172.089L202.778 161.968L229.824 146.354L199.579 128.894L172.533 144.507L155 134.386ZM214.847 120.08L227.23 127.228C229.933 128.789 231.869 129.906 233.038 130.581C234.352 131.256 236.032 132.016 238.076 132.86C240.192 133.662 241.943 134.085 243.328 134.129C244.713 134.173 246.316 134.007 248.136 133.631C249.957 133.255 251.812 132.521 253.702 131.43C255.593 130.339 256.863 129.268 257.515 128.217C258.239 127.124 258.563 126.178 258.487 125.378C258.411 124.579 257.641 123.589 256.179 122.409C254.789 121.187 253.473 120.217 252.231 119.5C251.135 118.784 249.236 117.645 246.533 116.085L234.15 108.936L214.847 120.08Z" fill="url(#paint0_radial_1481_3303)"/>
</g>
<circle r="130.637" transform="matrix(0.866044 0.499967 -0.866044 0.499967 226.273 147.628)" fill="url(#paint1_radial_1481_3303)"/>
<circle r="124.637" transform="matrix(0.866044 0.499967 -0.866044 0.499967 226.273 130.628)" fill="url(#paint2_radial_1481_3303)"/>
<circle r="124.637" transform="matrix(0.866044 0.499967 -0.866044 0.499967 226.273 130.628)" fill="url(#paint3_angular_1481_3303)" fill-opacity="0.2"/>
<circle r="124.637" transform="matrix(0.866044 0.499967 -0.866044 0.499967 226.273 130.628)" stroke="url(#paint4_linear_1481_3303)" stroke-width="12"/>
<circle r="124.637" transform="matrix(0.866044 0.499967 -0.866044 0.499967 226.273 130.628)" stroke="url(#paint5_angular_1481_3303)" stroke-opacity="0.2" stroke-width="12"/>
<g filter="url(#filter1_dii_1481_3303)">
<path d="M155 134.386L231.885 90L261.801 107.27C284.74 120.513 289.048 131.269 274.725 139.537C264.765 145.287 252.483 144.829 237.879 138.161L233.517 140.679L244.804 147.195C251.013 150.78 251.028 154.356 244.848 157.924L220.311 172.089L202.778 161.968L229.824 146.354L199.579 128.894L172.533 144.507L155 134.386ZM214.847 120.08L227.23 127.228C229.933 128.789 231.869 129.906 233.038 130.581C234.352 131.256 236.032 132.016 238.076 132.86C240.192 133.662 241.943 134.085 243.328 134.129C244.713 134.173 246.316 134.007 248.136 133.631C249.957 133.255 251.812 132.521 253.702 131.43C255.593 130.339 256.863 129.268 257.515 128.217C258.239 127.124 258.563 126.178 258.487 125.378C258.411 124.579 257.641 123.589 256.179 122.409C254.789 121.187 253.473 120.217 252.231 119.5C251.135 118.784 249.236 117.645 246.533 116.085L234.15 108.936L214.847 120.08Z" fill="#E7E3FF"/>
<path d="M155 134.386L231.885 90L261.801 107.27C284.74 120.513 289.048 131.269 274.725 139.537C264.765 145.287 252.483 144.829 237.879 138.161L233.517 140.679L244.804 147.195C251.013 150.78 251.028 154.356 244.848 157.924L220.311 172.089L202.778 161.968L229.824 146.354L199.579 128.894L172.533 144.507L155 134.386ZM214.847 120.08L227.23 127.228C229.933 128.789 231.869 129.906 233.038 130.581C234.352 131.256 236.032 132.016 238.076 132.86C240.192 133.662 241.943 134.085 243.328 134.129C244.713 134.173 246.316 134.007 248.136 133.631C249.957 133.255 251.812 132.521 253.702 131.43C255.593 130.339 256.863 129.268 257.515 128.217C258.239 127.124 258.563 126.178 258.487 125.378C258.411 124.579 257.641 123.589 256.179 122.409C254.789 121.187 253.473 120.217 252.231 119.5C251.135 118.784 249.236 117.645 246.533 116.085L234.15 108.936L214.847 120.08Z" fill="url(#paint6_radial_1481_3303)"/>
</g>
<defs>
<filter id="filter0_dii_1481_3303" x="143" y="78" width="151.982" height="106.089" filterUnits="userSpaceOnUse" color-interpolation-filters="sRGB">
<feFlood flood-opacity="0" result="BackgroundImageFix"/>
<feColorMatrix in="SourceAlpha" type="matrix" values="0 0 0 0 0 0 0 0 0 0 0 0 0 0 0 0 0 0 127 0" result="hardAlpha"/>
<feOffset/>
<feGaussianBlur stdDeviation="6"/>
<feComposite in2="hardAlpha" operator="out"/>
<feColorMatrix type="matrix" values="0 0 0 0 0 0 0 0 0 0 0 0 0 0 0 0 0 0 0.25 0"/>
<feBlend mode="normal" in2="BackgroundImageFix" result="effect1_dropShadow_1481_3303"/>
<feBlend mode="normal" in="SourceGraphic" in2="effect1_dropShadow_1481_3303" result="shape"/>
<feColorMatrix in="SourceAlpha" type="matrix" values="0 0 0 0 0 0 0 0 0 0 0 0 0 0 0 0 0 0 127 0" result="hardAlpha"/>
<feOffset dy="1"/>
<feGaussianBlur stdDeviation="0.5"/>
<feComposite in2="hardAlpha" operator="arithmetic" k2="-1" k3="1"/>
<feColorMatrix type="matrix" values="0 0 0 0 0.566667 0 0 0 0 1 0 0 0 0 0.872549 0 0 0 1 0"/>
<feBlend mode="normal" in2="shape" result="effect2_innerShadow_1481_3303"/>
<feColorMatrix in="SourceAlpha" type="matrix" values="0 0 0 0 0 0 0 0 0 0 0 0 0 0 0 0 0 0 127 0" result="hardAlpha"/>
<feOffset dx="-2" dy="2"/>
<feGaussianBlur stdDeviation="3"/>
<feComposite in2="hardAlpha" operator="arithmetic" k2="-1" k3="1"/>
<feColorMatrix type="matrix" values="0 0 0 0 0.791667 0 0 0 0 1 0 0 0 0 0.938725 0 0 0 0.7 0"/>
<feBlend mode="normal" in2="effect2_innerShadow_1481_3303" result="effect3_innerShadow_1481_3303"/>
</filter>
<filter id="filter1_dii_1481_3303" x="143" y="78" width="151.982" height="106.089" filterUnits="userSpaceOnUse" color-interpolation-filters="sRGB">
<feFlood flood-opacity="0" result="BackgroundImageFix"/>
<feColorMatrix in="SourceAlpha" type="matrix" values="0 0 0 0 0 0 0 0 0 0 0 0 0 0 0 0 0 0 127 0" result="hardAlpha"/>
<feOffset/>
<feGaussianBlur stdDeviation="6"/>
<feComposite in2="hardAlpha" operator="out"/>
<feColorMatrix type="matrix" values="0 0 0 0 0 0 0 0 0 0 0 0 0 0 0 0 0 0 0.25 0"/>
<feBlend mode="normal" in2="BackgroundImageFix" result="effect1_dropShadow_1481_3303"/>
<feBlend mode="normal" in="SourceGraphic" in2="effect1_dropShadow_1481_3303" result="shape"/>
<feColorMatrix in="SourceAlpha" type="matrix" values="0 0 0 0 0 0 0 0 0 0 0 0 0 0 0 0 0 0 127 0" result="hardAlpha"/>
<feOffset dy="1"/>
<feGaussianBlur stdDeviation="0.5"/>
<feComposite in2="hardAlpha" operator="arithmetic" k2="-1" k3="1"/>
<feColorMatrix type="matrix" values="0 0 0 0 0.566667 0 0 0 0 1 0 0 0 0 0.872549 0 0 0 1 0"/>
<feBlend mode="normal" in2="shape" result="effect2_innerShadow_1481_3303"/>
<feColorMatrix in="SourceAlpha" type="matrix" values="0 0 0 0 0 0 0 0 0 0 0 0 0 0 0 0 0 0 127 0" result="hardAlpha"/>
<feOffset dx="-2" dy="2"/>
<feGaussianBlur stdDeviation="3"/>
<feComposite in2="hardAlpha" operator="arithmetic" k2="-1" k3="1"/>
<feColorMatrix type="matrix" values="0 0 0 0 0.791667 0 0 0 0 1 0 0 0 0 0.938725 0 0 0 0.7 0"/>
<feBlend mode="normal" in2="effect2_innerShadow_1481_3303" result="effect3_innerShadow_1481_3303"/>
</filter>
<radialGradient id="paint0_radial_1481_3303" cx="0" cy="0" r="1" gradientUnits="userSpaceOnUse" gradientTransform="translate(308.103 131.137) rotate(178.891) scale(168.525 2174.14)">
<stop stop-color="#85F8BA"/>
<stop offset="1" stop-color="#76B8F5"/>
</radialGradient>
<radialGradient id="paint1_radial_1481_3303" cx="0" cy="0" r="1" gradientUnits="userSpaceOnUse" gradientTransform="translate(204.528 7.75656) rotate(125.528) scale(275.392)">
<stop stop-color="#949494"/>
<stop offset="1" stop-color="#171717"/>
</radialGradient>
<radialGradient id="paint2_radial_1481_3303" cx="0" cy="0" r="1" gradientUnits="userSpaceOnUse" gradientTransform="translate(288.669 -46.003) rotate(129.786) scale(486.734 528.478)">
<stop stop-color="#B71743"/>
<stop offset="1" stop-color="#139BD7"/>
</radialGradient>
<radialGradient id="paint3_angular_1481_3303" cx="0" cy="0" r="1" gradientUnits="userSpaceOnUse" gradientTransform="translate(130.637 130.637) rotate(90) scale(130.637)">
<stop offset="0.109431" stop-color="#525252"/>
<stop offset="0.192598" stop-color="#1D1D1D"/>
<stop offset="0.288167" stop-color="#1F1F1F"/>
<stop offset="0.368337" stop-color="#4B4949"/>
<stop offset="0.466839" stop-color="#202020"/>
<stop offset="0.578125" stop-color="#5B5B5B"/>
<stop offset="0.731366" stop-color="#252525"/>
<stop offset="0.883649" stop-color="#636363"/>
<stop offset="1"/>
</radialGradient>
<linearGradient id="paint4_linear_1481_3303" x1="195.955" y1="5.30711" x2="36.7415" y2="261.273" gradientUnits="userSpaceOnUse">
<stop stop-color="#444444"/>
<stop offset="1"/>
</linearGradient>
<radialGradient id="paint5_angular_1481_3303" cx="0" cy="0" r="1" gradientUnits="userSpaceOnUse" gradientTransform="translate(126.146 130.637) rotate(-111.273) scale(106.894)">
<stop offset="0.00838519"/>
<stop offset="0.110788"/>
<stop offset="0.162665" stop-color="#484848"/>
<stop offset="0.216151"/>
<stop offset="0.865786"/>
<stop offset="0.936657" stop-color="#555555"/>
</radialGradient>
<radialGradient id="paint6_radial_1481_3303" cx="0" cy="0" r="1" gradientUnits="userSpaceOnUse" gradientTransform="translate(308.103 131.137) rotate(178.891) scale(168.525 2174.14)">
<stop stop-color="#85F8BA"/>
<stop offset="1" stop-color="#76B8F5"/>
</radialGradient>
</defs>
</svg>
